<?xml version="1.0" encoding="UTF-8"?>
<!DOCTYPE svg PUBLIC "-//W3C//DTD SVG 1.1//EN" "http://www.w3.org/Graphics/SVG/1.1/DTD/svg11.dtd">
<svg xmlns="http://www.w3.org/2000/svg" version="1.1" width="500px" height="500px" style="shape-rendering:geometricPrecision; text-rendering:geometricPrecision; image-rendering:optimizeQuality; fill-rule:evenodd; clip-rule:evenodd" xmlns:xlink="http://www.w3.org/1999/xlink">
<g><path style="opacity:1" fill="#fddd58" d="M -0.5,-0.5 C 166.167,-0.5 332.833,-0.5 499.5,-0.5C 499.5,166.167 499.5,332.833 499.5,499.5C 332.833,499.5 166.167,499.5 -0.5,499.5C -0.5,332.833 -0.5,166.167 -0.5,-0.5 Z"/></g>
<g><path style="opacity:1" fill="#000000" d="M 248.5,0.5 C 332.43,82.7635 415.764,165.763 498.5,249.5C 415.833,332.833 332.833,415.833 249.5,498.5C 166.167,415.833 83.1667,332.833 0.5,249.5C 83.1877,166.479 165.854,83.479 248.5,0.5 Z"/></g>
<g><path style="opacity:1" fill="#fcdb58" d="M 248.5,26.5 C 323.764,100.097 398.43,174.43 472.5,249.5C 398.5,324.167 324.167,398.5 249.5,472.5C 174.833,398.5 100.5,324.167 26.5,249.5C 100.521,175.146 174.521,100.812 248.5,26.5 Z"/></g>
<g><path style="opacity:1" fill="#040301" d="M 233.5,121.5 C 277.41,118.055 314.577,132.055 345,163.5C 382.019,209.064 387.686,258.397 362,311.5C 333.033,359.07 290.533,380.903 234.5,377C 191.232,370.966 158.732,349.132 137,311.5C 116.698,270.97 116.365,230.304 136,189.5C 157.71,151.392 190.21,128.726 233.5,121.5 Z"/></g>
<g><path style="opacity:1" fill="#fedd58" d="M 234.5,138.5 C 282.759,134.881 319.926,153.214 346,193.5C 364.986,229.937 365.32,266.604 347,303.5C 321.246,345.294 283.746,364.127 234.5,360C 179.978,349.145 148.145,316.312 139,261.5C 136.226,206.196 160.059,167.363 210.5,145C 218.542,142.492 226.542,140.325 234.5,138.5 Z"/></g>
</svg>
